<?xml version="1.0" encoding="UTF-8"?>
<svg id="Layer_2" data-name="Layer 2" xmlns="http://www.w3.org/2000/svg" viewBox="0 0 313.62 245.52">
  <g id="Layer_1-2" data-name="Layer 1">
    <g>
      <path d="m113.55,82.3c6.55-13.46,12.59-27.16,19.26-41.81-8.22,0-15.35-.3-22.42.22-1.65.12-4.39,2.98-4.44,4.65-.37,12.88-.2,25.77-.2,40.4,3.51-1.47,7-1.81,7.81-3.45Z"/>
      <path d="m218.52,39.58h-30.84c.61,10.7,5.3,15.9,14.41,16.32,9.66.45,15.13-4.77,16.44-16.32Z"/>
      <path d="m223.42,49.89c-3.58,7.02-9.34,10.48-16.46,11.53-18.14.01-54.66.03-66.18.01-3.26,0-9.64-.02-9.64-.02l-41.81,124.89,15.46-13.82,18.07-48.1,30.51.04,4.52-15.18-31.71-.21,8.13-24.07,76.94.79.03-.12c10.46.03,18.89.05,22.03.05,10.21,0,25.43-4.45,34.48-14.95,3.17-3.68,6.62-7.31,8.88-11.53,2.88-5.38,4.69-11.33,7.45-18.26h-57.3c-1.25,3.34-2.04,6.28-3.4,8.94Z"/>
      <path d="m53.55,154.43c-.45,0-.88-.07-.98.6-.31,2.06-.67,6.93-1.03,9.09h38.78c.38-2.29.75-7.34,1.14-9.69h-27.49c-3.47,0-6.94,0-10.41,0Z"/>
      <path d="m73.5,95.27c-.45,0-.88-.07-.98.6-.31,2.06-.67,6.93-1.03,9.09h38.78c.38-2.29.75-7.34,1.14-9.69h-27.49c-3.47,0-6.94,0-10.41,0Z"/>
      <path d="m103.54,122.16h-27.49c-3.47,0-35.13,0-38.6,0-.45,0-.88-.07-.98.6-.31,2.06-.67,6.93-1.03,9.09h66.97c.38-2.29.75-7.34,1.14-9.69Z"/>
      <path d="m305.43.29C268.99.29,218.45.96,97.44,0c-12.11-.1-21.27,2.62-27.55,10.73h43.83v3.9h-46.39s-.02.03-.03.05h-20.82v5.07h18.94v5.18h29.87v7.18h-50.66v5.74h57.18c1.15-2.31,3.57-2.86,8.51-2.87,18.32-.04,50.74-.01,69.11-.01.57-1.43,1.08-2.46,1.4-3.55,3.25-11.08,9.2-16,20.25-16.71,10.91-.7,20.07,4.53,23.74,14.5,1.52,4.13,2.91,6.36,8.06,6.32,29.03-.26,17.18-.12,46.21-.13,16.98,0,34.06-16.97,34.55-35.11h-8.19Z"/>
      <path d="m248.82,95.3l-79.94-.04-8.92,29.05,71.63.8s6.12-.37,6.17,6.01h-19.36v4.5h18.62s-.01.04-.02.06h21.62v3.9h-23.08c-.71,1.67-1.59,3.68-2.59,5.96h-49.54v5.85h12.75v-2.92h43.69v7.18h-43.69v-.25h-53.18v6.32h94.68v3.59h-13.48c-.86,1.93-1.72,3.85-2.57,5.74h20.05v3.59h-48.78v4.5h25.1c-4.18,9.3-7.37,16.35-7.37,16.35,0,0-4.34.26-7.02.42-.37-3.37-.69-6.28-1.07-9.71h-27.09l-.26,8.77-7.92-.23-.02-8.55h-26.66l-.69,8.93-7.92-.15.39-9.07h-28.79v8.3h-25.31c-.36-3.86-.89-16.86-.89-16.86l-5.88-.27-.63,16.84h-27.49c-.3-3.41-.56-20.41-.85-23.75-2.41.13-4.36.24-6.42.36-.34,3.39-.62,20.39-.92,23.38H8.09c-.38-3.43-.7-6.34-1.07-9.71-2.68.16-4.85.29-7.02.42v51.44c2.48-.18,4.45-.33,6.53-.48.25-3.16.46-5.85.7-8.78h28.11l-.19,8.67h7.52c.28-3.21.76-8.61.76-8.61h27.17c.29,3.24.54,15.72.8,18.64h6.61c.41-3.13.59-14.32,1.11-18.25,8.28.54,16.44-.05,24.45.19v.18s120.59.71,122.25.52c5.56-16.02,37.92-82.6,47.21-114.44,4.31-14.76-11.87-18.37-24.21-18.41Z"/>
    </g>
  </g>
</svg>