<?xml version="1.0" encoding="UTF-8"?>
<svg id="Layer_2" data-name="Layer 2" xmlns="http://www.w3.org/2000/svg" viewBox="0 0 353.44 296.35">
  <defs>
    <style>
      .cls-1 {
        fill: none;
      }
    </style>
  </defs>
  <g id="Layer_1-2" data-name="Layer 1">
    <g>
      <path class="cls-1" d="m66.08,71.44c-.34.3-.65.61-.98.91.17-.12.54-.38,1.11-.79-.04-.04-.09-.08-.13-.12Z"/>
      <circle cx="148.23" cy="93.59" r="12.09" transform="translate(-20.76 46.97) rotate(-16.85)"/>
      <path d="m240.32,95.33c-18.5-31.63-45.7-43.87-74.5-43.87-66.47,0-73.63,44.61-73.63,44.61,0,0,31.6-26.21,75.69-19.72,17.87,2.63,29.64,11.56,37.31,23.2,1.57-.28,3.14-.56,4.71-.82,11.11-1.84,21.14-2.97,30.42-3.4Z"/>
      <path d="m40.23,167.95c-7.19-21.27-7.42-43.38,2.85-65.05,13.77-29.03,41.93-45.09,46.49-52.51-2.52,5.29-56.11,57.49-41.35,111.91,4.09-2.78,8.34-5.51,12.72-8.18-6.02-21.93,11.46-57.59,23.09-75.47,2.44-3.74,22.88-22.31,22.22-44.27C105.37,5.16,82.28-2.67,70.96.75c-6.73,2.03-10.82,6.65-12.13,13.61-.18.94-.56,1.91.67,2.72,5.53,3.68,17.78,5.91,19.55,23.5,4.19,20.9-29.46,30.86-44.24,57.21-10.53,18.77-19.98,45.24-9.85,82.24,1.06-.91,2.14-1.83,3.26-2.75,3.85-3.18,7.86-6.28,12.01-9.32Z"/>
      <path d="m49.54,229.09c17.66,21.34,40.64,31.71,64.89,34.09,22.41,2.2,43.72-11.34,51.28-32.55l.11-.31c-17.83,9.54-36.81,11.65-56.68,6.35-17.41-4.64-31.83-13.37-43.44-25.58-5.96,5.06-12.17,11.15-16.15,18.01Z"/>
      <path d="m269.21,131.81c9.72,1.27,16.51,4.72,19.65,9.97,1.83,3.07,2.33,6.64,1.48,10.45,4.19-5.26,7.19-10.36,9.16-15.51,2.99-7.83,2.88-14.52-.35-19.9-4.67-7.79-15.98-13.01-32.71-15.11-5.66-.71-11.54-1.07-17.78-1.07-11.25,0-23.64,1.17-37.85,3.53-28.87,4.79-57.57,13.08-87.74,25.32-37.49,15.21-67.37,32.23-91.34,52.03-16.09,13.28-25.63,25.07-30.05,37.08-2.4,6.53-2.23,12.39.49,17.42,3.68,6.79,11.89,11.82,23.73,14.53,8.09,1.85,17.17,2.72,27.55,2.62-5.23-1.86-8.96-4.65-10.96-8.26-2.23-4.02-2.23-8.89,0-14.09,4.87-11.33,15.41-20.69,24.05-27.58,16.4-13.07,36.73-25.16,62.15-36.98,32.21-14.97,62.62-25.21,92.98-31.31,13.16-2.64,30.46-5.39,47.53-3.16Z"/>
      <path d="m264.4,239.98c21.25,24.44,48.85,39.98,89.04,51.85-10.07-7.07-25.32-13.98-36.41-20.59-19.99-11.91-32.62-19.05-51.92-34.91-7.73-6.35-15.5-12.65-23.16-19.35,3.02-5.46,5.74-11.46,8.05-18.1,7.33-20.38,9.21-41.6,5.52-62.39-11.89.05-23.39,1.98-32.75,3.86-1.57.31-3.13.65-4.7.98,2,22.43-1.63,41.97-1.63,41.97-.37,2.1-.84,4.43-1.42,6.94-3.7-4.29-7.31-8.83-10.83-13.68-6.01-8.3-11.51-18.02-16.22-27.38-6.84,2.09-13.71,4.41-20.64,6.95,1.73,21.26,9.34,47.58,31.26,72.98-11.47,17.28-29.74,33.53-58.86,40.49,0,0,42.66,3.93,76.87-22.75,4.52,3.82,9.41,7.58,14.75,11.27,14.19,9.8,27.01,19.71,42.03,28.28,6.64,3.79,13.64,6.94,20.8,9.92-8.89-7.84-16.36-16.74-23.61-25.83.21-.38.43-.76.64-1.14,1.37.14,2.9-.07,4.09.47,4.97,2.23,9.91,4.53,14.72,7.07,9.29,4.91,18.48,9.99,27.73,14.99.64.34,1.34.56,2.45,1.01-26.59-19.28-36.5-24.77-55.8-52.93Z"/>
      <path d="m137.21,229.19c20.59-.75,36.29-18.86,33.74-39.3l-.02-.2c-12.22,10.85-45.01,13.88-74.11-.52-8.68,5.18-16.54,10.46-23.66,15.91,19.56,19.55,43.89,24.84,64.05,24.11Z"/>
    </g>
  </g>
</svg>