<?xml version="1.0" encoding="UTF-8"?>
<svg id="Layer_2" data-name="Layer 2" xmlns="http://www.w3.org/2000/svg" viewBox="0 0 268.43 307.07">
  <defs>
    <style>
      .cls-1 {
        stroke-width: 7.2px;
      }

      .cls-1, .cls-2 {
        fill: none;
        stroke: #000;
        stroke-miterlimit: 10;
      }

      .cls-2 {
        stroke-width: 14.06px;
      }
    </style>
  </defs>
  <g id="Layer_1-2" data-name="Layer 1">
    <g>
      <g>
        <path d="m100.06,60.54c0,41.2-.08,20.72.11,61.92.02,4.57-1.27,7.78-4.32,11.15-3.83,4.23-37.85,12.23-37.85,12.23V35.27s-.59-13.85-1.1-15.63c-1.78-6.23-4.07-12.17-10.44-15.35C36.23-.83,25.34-.03,14.49.7c-2.67.18-1.22,2.63-1.5,4.06-.25,1.3.08,2.45,1.81,2.45,2.42,0,4.84-.01,7.26.02,3.88.05,7.06,1.47,8.15,5.41.98,3.54,1.88,7.22,1.97,10.86.27,10.13.06,34.57.13,36.63,0,0,.07,94.55.07,168.06,0,.77,0,1.55,0,2.31.68-.52,1.51-1.78,2.23-1.86.73-.08,2.55-.36,3.29-.15,3.88,2.65,5.78,12.24,9.89,10.19,9.25-4.11,4.11-18.51,10.8-25.97.6-.78,1.27-1.51,2.04-2.16.74-.85,1.46-1.69,2.16-2.54,5.6-6.77,9.92-14.49,12.78-23.31.22-.67.61-1.34,1.09-1.86,6.99-7.53,19.13-15.04,26.19-22.5.53-.56,1.52-.97,2.31-.97,7.22-.07,4.16-.04,11.39-.04h1.8V58.18h-18.31v2.37Z"/>
        <path d="m255.55,4.26c-.19-1.65.86-3.88-2.28-3.99-8.32-.31-16.59-.74-24.82,1.32-7.86,1.97-12.95,6.53-15.5,14.2-.66,1.98-1.83,13.45-1.83,13.45,0,0,.43,116.72,0,116.6-7.04-1.85-38.52-12.88-41.16-15.59-.93-.96-1.32-1.91-1.32-3.26.04-42.78.03-23.88.03-66.66v-2.15h-18.36v101.15h1.9c7.11,0,3.94.03,11.05-.03,1.25-.01,2.08.38,2.91,1.28,5.86,6.34,16.84,12.71,22.83,18.92,2.47,2.56,4.67,5.16,5.32,8.78.09.49.37.94.56,1.41,3.35,7.89,7.79,14.82,13.23,20.85.5.55,1,1.09,1.52,1.63.56.5,1.07,1.03,1.54,1.6.48.56.91,1.15,1.33,1.76,1.17,1.7,1.9,3.91,2.51,6.25.2.78.39,1.58.59,2.39,2.86,5.25,1.83,17.59,9.03,16.56,3.08-1.03,2.06-9.25,7.2-12.34,1.03,0,2.06,1.03,3.36,1.66.38.19.77.38,1.15.57,0-74.81-.1-194.68.05-204.67.06-3.77.27-7.62,1.12-11.27,1.2-5.18,3.53-7.69,9.21-7.76,2.13-.03,4.26-.07,6.38.02,1.99.09,2.68-.84,2.46-2.69Z"/>
      </g>
      <polygon points="163.75 119.56 155.39 125.07 109.81 63.67 118.17 58.16 163.75 119.56"/>
      <polygon points="137.26 87.87 128.97 82.25 150.42 58.2 158.71 63.82 137.26 87.87"/>
      <path class="cls-2" d="m111.23,141.5v29.04c0,9.83,3.53,17.79,22.93,17.79s22.93-7.97,22.93-17.79v-29.04"/>
      <path d="m139.79,38.79c.18-4.24,1.6-7.7,3.59-8.46,1.59-.6,3.21-.8,4.81-1.22.33-.09.9-.32.92-.63.12-1.49.19-3.08.04-4.52-.05-.47-.82-.85-1.27-.85-5.22-.06-10.45-.04-15.67-.04-3.99,0-7.98.04-11.96-.03-1.1-.02-1.17,1.29-1.15,3.02.02,1.64-.03,3.16,1.11,3.09.98-.05,1.98.04,2.96.28,2.38.59,4.55,2.05,5.26,7.59.26,2.03.1,196.8-.28,199.27-.66,4.27-1.89,7.61-4.24,8.15-1.57.36-3.15.65-4.72.9-.97.16-1.47,1.43-1.01,3.17.18.68.86,1.09,1.31,1.1,9.81.06,19.62.05,29.43.05.21,0,.42,0,.63-.03.73-.07.8-1.1.8-2.32,0-1.25-.21-1.95-.86-1.95-.95,0-1.91.03-2.86-.14-2.25-.41-4.44-1.2-5.71-5.85-.82-3-1.23-6.24-1.23-9.71,0-7.68,0-188.53.11-190.88Z"/>
      <path d="m266.78.86c2.67.18,1.22,2.63,1.5,4.06.25,1.3-.08,2.45-1.81,2.45-2.42,0-3.92-.7-6.34-.67-3.88.05-4.63,2-5.72,5.95-.98,3.54-1.88,7.22-1.97,10.86-.27,10.13-.06,34.57-.13,36.63,0,0-.07,75.99-.07,149.81-4.46-1.88-5.55-4.08-9.48-6.66V3.59c9.79-4.33,13.71-3.43,24.03-2.73Z"/>
      <path d="m1.65.86C-1.02,1.04.43,3.49.15,4.91c-.25,1.3.08,2.45,1.81,2.45,2.42,0,3.92-.7,6.34-.67,3.88.05,4.63,2,5.72,5.95.98,3.54,1.88,7.22,1.97,10.86.27,10.13.06,34.57.13,36.63,0,0,.07,75.99.07,149.81,4.46-1.88,5.55-4.08,9.48-6.66V3.59C15.89-.74,11.97.16,1.65.86Z"/>
      <g>
        <path d="m135.72,272.63c.5-2.09.5-3.11.65-5.52.14-.82.32-1.6.57-2.35s.58-1.47,1.02-2.18c.24-.73.49-1.43.75-2.13,3.42-9.06,8.79-16.72,17.13-21.81,15.85-9.66,22.66-23.23,22.89-41.06.24-18.6.43-10.98.84-29.57.29-13.29,16.28-16.93,18.79-18.94.34.26.68.52,1.03.77.11,1.44.31,2.88.32,4.31.02,38.01.19,9.19-.04,47.2-.04,6.06-.63,11.8-1.77,17.21-.16.77-.34,1.54-.52,2.3-.67,1.99-1.15,4.14-1.56,6.35-.13.74-.26,1.49-.38,2.25-2.67,9.2.41,26.68-14.05,20.97-.48.5-.97,1-1.47,1.5-5.5,5.45-12.15,10.19-19.94,14.2-.46.24-.92.46-1.39.68s-.93.43-1.4.63c-.66.21-1.27.46-1.84.76-.57.31-1.11.67-1.62,1.09-.65.54-1.18,1.17-1.63,1.87s-.81,1.46-1.12,2.26c-.24.58-.43,1.22-.58,1.89-.16.69-.28,1.42-.38,2.19-.14.73-.23,1.47-.29,2.2-.06.74-.09,1.48-.1,2.24-1.01,8.42,1.22,17.32-4.34,25.1-4.45-7.78-3.34-16.68-5.05-24.51-.07-.65-.15-1.3-.23-1.94-.08-.48-.16-.94-.26-1.44-.3-1.32-.74-2.59-1.42-3.72-.38-.66-.84-1.27-1.39-1.78-.39-.42-.79-.77-1.19-1.05Z"/>
        <path d="m132.53,271.57c-.64-.07-1.28-.1-1.91-.13-.63-.03-1.25-.06-1.87-.11-1.24-.09-2.46-.21-3.67-.36-.48-.06-.96-.13-1.44-.19-5.94.79-5.94,10.04-11.08,9.01-3.08-.77-3.28-5.59-4.91-9.82-.27-.7-.58-1.39-.96-2.04-1.33-1.5-2.36-2.53-3.39-3.56-10.28,11.31-13.37-7.2-18.06-13.58-.33-.7-.65-1.4-.98-2.11-1.65-3.53-3.43-7.12-6.16-10.01-.38-.64-.75-1.28-1.11-1.93-5.4-9.74-8.24-20.76-8.32-33.06-.25-39.29-.09-11.75-.09-51.04,0-.9.15-1.79.24-2.86,3.93.43,6.46,2.72,8.54,5.54,4.67,6.3,11.29,10.41,11.43,25.44.15,15.25.28,4.29.72,19.53.47,16.56,7.59,28.98,22.1,37.89,9.86,6.06,15.68,15.38,19.11,26.46.23.74.45,1.48.66,2.24.21.75.41,1.52.6,2.29.19.78.37,1.58.55,2.39Z"/>
      </g>
      <path class="cls-1" d="m92.9,149.44v18.7c0,22.79,18.47,41.26,41.26,41.26h0c22.79,0,41.26-18.47,41.26-41.26v-18.7"/>
    </g>
  </g>
</svg>