<?xml version="1.0" encoding="UTF-8"?>
<svg id="Layer_2" data-name="Layer 2" xmlns="http://www.w3.org/2000/svg" viewBox="0 0 317.52 294.92">
  <g id="Layer_1-2" data-name="Layer 1">
    <g>
      <path d="m303.52,195.77c-27.05-18.85-50.98,8.44-49.13,26.11,1.85,17.67,27.51,21.89,32.08,8,0,0-22.15.7-12.31-17.49,8.34-15.42,34.54-5.27,30.59,13.45-3.07,14.53-16.51,32.95-41.98,37.67,2.33-2.59,3.46-5.88,3.25-9.69-.23-4.13-4.1-7.26-8-6.14,3.99,2.41,4.62,6.1,1.68,9.63-3.12,3.75-7.08,6.14-12.01,6.91-.76.12-1.53.22-2.29.31-4.29-.24-8.81-.8-13.6-1.77-6.92-1.41-13.2-2.99-18.9-4.78-.02-.17-.04-.35-.06-.48.74-.17,1.5-.28,2.22-.5,7.84-2.39,13.32-7.12,15.28-15.38,3.28-13.78-2.34-28.67-15.37-36.23-11.47-6.65-26.81-5.46-36.83,3.01-5.1,4.31-8,9.87-9.99,15.9-3.38-6.48-5.91-13.85-7.85-22.27-.66-2.89-1.77-15.53-1.77-15.53,0,0,21.68,4.75,33.89,4.36,43.77-1.41,75.42-53.62,54.5-110.93-8.26-22.64-22.53-34.09-38.15-42.1-30.85-15.82-66.71-3.96-84.65,26.63-21.43,36.55-10.55,58.28-10.55,58.28,0,0,1.96-32.32,21.54-54.41,6.84-7.72,16.92-13.16,27.38-15.52l-10.47,44.25c-10.09,2.45-20.4,8.83-29.92,21.55-9.06,12.1-12.92,32.16-14.24,43.42-.47,3.98-.74,7.81-.95,11.54-1.95-1.84-4.18-3.3-6.79-4.21,2.67-25.46,2.22-51.08,7.55-76.16,4.48-19.06,12.38-37.25,23.04-53.73-12.84,15.31-22.57,33.1-28.79,52.15-5.96,19.07-7.85,39.25-10.6,58.87-1.84,14.26-3.73,27-7,39.15-5.2-4.91-7.57-11.02-7.82-17.57-.37-9.37,3.46-16.26,13.71-18.57-.28-.36-.56-.72-.84-1.08-3.45.89-6.9,1.78-9.86,2.54,2.48-14.54,4.99-29,7.41-43.48,4.04-24.2,11.12-45.87,28.61-64.85,17.49-18.99,34.84-28.97,52.8-34.74,17.31-5.56,36.03-4.08,54.37,3.48,6.27,2.58,12.19,6.22,16.87,11.95-4.74.27-9.01.51-14.97.85,4.4,5.82,7.68,11.16,12,15.61,5.69,5.85,12.5,10.73,18.27,16.52,8.02,8.07,12.23,17.77,13.96,28.25.23,1.36.66,2.72.99,4.08.41,0,.81.02,1.22.02.42-4.66,1.38-9.28,1.17-13.99-.62-13.85-2.48-27.64-9.68-40.81-6.38-11.67-14.35-22.18-27.17-28.07-24.74-11.36-49.64-12.51-73.31-5.07-31.76,9.99-47.13,23.35-61.95,44.45-14.21,20.25-26.26,50.49-29.06,68.14-3.1,19.55-5.12,39.49-12.43,57.73-9.49,23.7-25.38,41.59-52.38,48.49-1.62.41-3.19.93-4.79,1.4,5.64.58,10.94.28,15.95-.75C8.58,231.2,1.38,240.36.12,252.56c-1.15,11.12,6.07,22.37,16.63,26,9.69,3.32,19.75.1,27.97-4.75,14.96-9.29,27.46-24.18,36.72-40.98,1.81.98,3.61,2,5.38,3.08-14.65,21.52-26.02,33.95-47.61,45.56,0,0,26.59,5.58,47.03-7.12,7.08-4.4,14.8-11.14,21.89-20.13.5.65.98,1.32,1.44,1.99,7.98,11.18,10.08,28.05.04,38.7,2.13-1.3,4.01-3.07,5.6-5.08,8.43-10.66,7.47-26.06,1.63-37.78-.96-1.92-2.02-3.77-3.17-5.56,7.94-12.14,14.52-27.42,17.57-45.72,2.11-12.66,1.41,9.23,12.66,26.11,4.36,6.54,12.22,15.94,23.78,24.79l-1.18,1.65c-.81,1.13-.55,2.71.58,3.53l9.58,6.87c1.13.81,2.71.55,3.53-.58l1.58-2.2c2.42,1.36,4.95,2.66,7.6,3.9l-1.02,2.55c-.52,1.29.11,2.77,1.4,3.29l10.94,4.39c1.3.52,2.77-.11,3.29-1.4l1.12-2.78c2.8.85,5.7,1.62,8.69,2.3-.17.29-.28.62-.32.97l-.37,3.2c-.16,1.39.83,2.64,2.22,2.8l11.71,1.35c1.39.16,2.64-.83,2.8-2.22l.37-3.2c.01-.11,0-.21,0-.32,2.67.25,5.4.42,8.2.51-.09.29-.13.6-.11.93l.23,3.21c.1,1.39,1.31,2.44,2.7,2.34l11.76-.84c1.39-.1,2.44-1.31,2.34-2.7l-.23-3.21c0-.07-.02-.13-.03-.2,2.25-.21,4.44-.5,6.58-.85-.04.28-.05.58.01.88l.64,3.15c.28,1.37,1.61,2.25,2.98,1.98l11.56-2.34c1.37-.28,2.25-1.61,1.98-2.98l-.64-3.15c-.13-.65-.5-1.18-1-1.54,41.08-14.88,52.52-56.96,26.37-75.18Zm-65.74-91.41c1.8,0,3.26,1.46,3.26,3.26s-1.46,3.26-3.26,3.26-3.26-1.46-3.26-3.26,1.46-3.26,3.26-3.26Zm-14.94,27.26c-1.8,0-3.26-1.46-3.26-3.26s1.46-3.26,3.26-3.26,3.26,1.46,3.26,3.26-1.46,3.26-3.26,3.26Zm-2.11-49.77c4.86,0,8.8,3.94,8.8,8.8s-3.94,8.8-8.8,8.8-8.8-3.94-8.8-8.8,3.94-8.8,8.8-8.8Zm-10.73,34.28s-.08,0-.19-.06c.12.04.19.06.19.06Zm-144.78,115.09c-7.62,11.07-16.91,21.93-28.55,28.63-5.75,3-12.73,6.01-17.35,1.07-7.24-7.86,3.25-19.97,10.03-24.92,10.85-8.32,25.12-11.25,38.32-8.47-.79,1.23-1.59,2.46-2.44,3.69Zm9.67-16.4c-10.74-3.94-22.44-4.6-33.54-2.09,10.45-7.99,18.21-18.34,24.83-29.66.72-1.23,1.54-2.41,2.79-4.35,2.28,13.23,3.84,17.18,8.89,23.34.57.69,1.17,1.34,1.78,1.97-1.4,3.61-2.97,7.2-4.76,10.8Zm18.74,10.81c-2.09-1.57-4.23-3.06-6.4-4.48,1.48-3.34,2.84-6.72,4.07-10.12,2.67.69,5.35.82,7.87.3.69-.15,1.36-.34,2.01-.56-1.79,4.72-4.22,9.64-7.55,14.86Zm7.11-31.42c-1.43.76-3.02,1.12-4.72,1.09,1.13-4.7,2-9.36,2.57-13.89.52-3.4.95-6.8,1.33-10.2,4.72,4.17,4.9,4.87,5.93,9.32,1.25,5.39-1.04,11.51-5.12,13.68ZM175.21,51.51c8.28.24,16.05,2.68,21.83,7.81,12.82,11.38,11.99,25.87,8.83,48.3-.23,1.66-.5,3.28-.78,4.86-7.53-5.62-22.92-15.79-40.37-16.61l10.49-44.35Zm-39.9,116.16c-4.46-1.34-8.72-3.73-10.92-8.02-7.07-13.81,4.84-31.86,10.02-37.53,3.82-4.19,8.58-7.1,13.83-9.07l-12.92,54.63Zm15.23,1.6c-.42,0-1.58.05-3.2.03l14.03-59.28c16.68-1.89,34.63,2.13,43.32,4.52-8.7,44.08-36.42,54.73-54.14,54.73Zm57.17,83.02c1.67-1.55,3.34-3.1,4.85-4.5-.92-.54-1.58-.93-2.25-1.32-8.73,6.42-18.03.91-20.2-8.17-.66-2.75-.88-5.48,1.74-7.35,2.98-2.12,6.18-2.33,9.55-.73,3.93,1.86,4.89,5.4,5.53,9.74,1.43-4.36,1.08-8-.89-11.57-3.07-5.55-10.63-6.91-16.63-6.06-8.69,1.23-11.14,8.4-10.18,14.49.19,1.21.49,2.33.89,3.39-4.32-4.08-7.88-8.68-10.84-13.89,1.97-5.99,5.79-10.79,12.65-13.64,9.75-4.05,18.33-2.15,25.87,5.25.28-.19.57-.37.85-.56-.91-2.77-1.82-5.55-2.73-8.32.14-.03.45-.19.69-.12,7.81,2.19,14.15,6.43,18.69,13.25,9.27,13.91.83,26.14-9.55,29.98-2.37.88-5.09.83-7.65,1.21-.13-.37-.25-.73-.38-1.1Z"/>
      <path d="m187.11,83.44c-1.8,0-3.26,1.46-3.26,3.26s1.46,3.26,3.26,3.26,3.26-1.46,3.26-3.26-1.46-3.26-3.26-3.26Z"/>
      <path d="m192.07,64.07c-2.74,0-4.97,2.22-4.97,4.97s2.22,4.97,4.97,4.97,4.97-2.22,4.97-4.97-2.22-4.97-4.97-4.97Z"/>
    </g>
  </g>
</svg>