<?xml version="1.0" encoding="UTF-8"?>
<svg id="Layer_2" data-name="Layer 2" xmlns="http://www.w3.org/2000/svg" viewBox="0 0 208.1 336.55">
  <g id="Layer_1-2" data-name="Layer 1">
    <g>
      <rect x="47.46" y="134.86" width="117.14" height="10"/>
      <path d="m207.12,140.47c-7.32-.92-14.65-1.81-21.97-2.76-.44-.06-.87-.13-1.31-.19-.48-.16-6.35-2.29-6.81-9.85v-30.69l-15.33,37.92h-2.69v9.97h2.29l15.73,35.41v-30.75c.42-6.88,6.03-7.52,6.11-7.52,7.4-.19,14.8-.32,22.2-.49.92-.02,1.83-.13,2.75-.2-.34-.65-.65-.8-.98-.84Z"/>
      <path d="m.98,140.47c7.32-.92,14.65-1.81,21.97-2.76.44-.06.87-.13,1.31-.19.48-.16,6.35-2.29,6.81-9.85v-30.69s15.33,37.92,15.33,37.92h2.69v9.97h-2.29s-15.73,35.41-15.73,35.41v-30.75c-.42-6.88-6.03-7.52-6.11-7.52-7.4-.19-14.8-.32-22.2-.49-.92-.02-1.83-.13-2.75-.2.34-.65.65-.8.98-.84Z"/>
      <path d="m112.22,74.59c0-.79,1.54-1.77,2.1-2.34,5.97-6,11.99-11.95,18.03-17.88,1.74-1.71,1.89-7.43,1.88-9.96-.04-14.37.85-17.89.84-32.27,0-.79-.03-1.61-.24-2.36-1.57-5.68-8.33-7.29-12.8-3.01-3.73,3.58-7.39,7.23-11.03,10.9-1.56,1.56-3,3.24-4.58,4.96-.88-.84-1.42-1.33-1.93-1.84-4.64-4.59-9.29-9.18-13.92-13.79-2.22-2.21-4.86-3.17-7.92-2.51-3.6.78-5.89,3.7-5.66,7.85,1.46,26.66.03,21.51-.04,35.37-.02,3.11.74,5.91,3.23,7.74,11.17,8.23,11.48,10.48,17.26,16.11.97.94,2.3,1.89,2.3,3.26,0,5.52,0,223.13,0,228.65h12.48c0-5.61,0-223.3,0-228.91Zm-16.32-25.57c-3.14-3.28-6.81-4.93-6.4-9.49.41-4.56.26.23.26-4.37,0-.6.13-9.45.13-10.54.8.76,4.08,5.5,4.5,5.91,2.38,2.35,3.53,5.05,5.93,7.38,3.66,3.54,7.96,3.56,11.61.04,2.37-2.28,3.76-6.36,6.1-8.67.39-.39,3.95-5.32,4.63-5.94.05.88.68,13.68.64,19.92,0,.68-2.91,3.66-3.34,4.11-4.4,4.66-8.87,7.16-13.8,12.26-3.04,1.12-6.61-6.8-10.26-10.61Z"/>
      <path d="m111.12,29.21c0,5.17,0,10.34,0,15.51,0,3.37-5.16,9.33-5.16,9.33,0,0-5.01-6.06-5.01-9.37,0-10.45,1.24-27.39,1.23-37.84,0-2.32.27-5.51,2.41-6.48,1.94-.88,2.33-.1,3.94,1.29,1.29,1.11,1.69,3.51,1.68,5.19-.02,5.28.91,17.08.91,22.37h0Z"/>
      <path d="m112.86,169.86c-.18-3.15.89-4.58,3.8-5.78,16.01-6.59,19.12-26.5,5.97-37.61-1.59-1.34-3.24-3.03-5.12-3.51-6.15-1.56-7.35-5.28-6.7-9.97h-10.28c1.08,5.91.4,6.49-5.56,8.49-4.71,1.58-8.62,4.52-10.97,9.09-6.36,12.39-1.44,27.14,11.65,33.93,3.14,1.63,4.06,3.46,4.02,6.74-.03,1.83.91,3.67.89,5.5h11.48c-.11-2.29.96-4.59.83-6.88Zm-12.36-12.42c-6.98-2.03-10.21-6.41-11.57-12.28-1.35-5.82,1.13-12.22,5.53-15.17,3.09-2.08,5.9-.94,5.99,2.73.19,8.01.06,16.03.06,24.72Zm8.64-6.87c.34-.11.68-.21,1.02-.32,0-5.79-.08-11.58.06-17.37.03-1.32.52-3.54,1.25-3.75,1.34-.38,3.44-.07,4.49.82,4.05,3.47,5.65,8.18,4.96,13.4-.36,2.7-1.72,5.26-2.34,7.94-.83,3.61-3.58,5.18-6.58,4.96-1.09-.08-1.91-3.69-2.86-5.69Z"/>
      <path d="m176.37,70.5c-2.35-1.74-4.41-3.12-6.31-4.68-5.55-4.57-5.66-4.71-10.36.99-4.24,5.14-9.37,8.86-15.18,12.12-10.55,5.91-21.97,9.1-33.69,10.19-7.68.72-16.26.2-23.31-2.61-9.62-3.83-19.82-7.33-27.53-15.19-5.38-5.48-11.44-10.29-17.04-15.27-2.06,1.84-4.7,4.21-7.27,6.51,6.62,10.28,13.52,19.56,24.37,24.68,10.69,5.05,21.61,9.62,31.08,13.81-.15.04,8.18,2.12,17.18,1.59,25.99-1.54,53.11-20.06,68.05-32.15Z"/>
      <path d="m135.39,217.07c-.36,11.77-3.35,21.06-7.28,30.09-4.72,10.81-9.72,21.5-14.29,32.38-2.82,6.72-4.54,13.69-4.49,21.19.03,5.02-1.46,10.07-2.4,15.08-.13.72-.99,1.3-1.52,1.95-.59-.5-1.43-.87-1.75-1.51-5.24-10.51-5.7-20.7,1.43-30.8,2.62-3.71,4.28-8.13,6.22-12.3,5.37-11.54,10.47-23.18,13.65-35.56,2.08-8.09,3.31-16.26,1.32-24.58-2.35-9.82-9.03-16.4-16.68-22.23-1.2-.91-2.54-1.66-3.65-2.66-1.05-.94-2.49-2-2.7-3.19-.47-2.66-.07-5.42,2.04-7.45.44-.43,1.69-.65,2.15-.34,11.66,7.68,22.1,16.5,26.21,30.6,1.04,3.58,1.38,7.37,1.73,9.33Z"/>
      <path d="m102.59,300.15c.32-9.23-3.06-17.58-6.56-25.81-4.51-10.63-9.56-21.03-14.04-31.67-3.6-8.55-5.82-17.46-5.23-26.89.6-9.63,4.4-17.97,11.03-24.71,4.9-4.98,10.69-9.09,16.06-13.62,1.41-1.19,2.73-.81,3.23.63.82,2.39,1.31,4.92,1.63,7.43.07.55-1.04,1.39-1.75,1.89-5.49,3.87-10.85,7.86-15.13,13.15-5.81,7.18-7.8,15.42-7.08,24.45,1.02,12.8,5.56,24.6,10.51,36.25,3.04,7.16,6.43,14.18,9.81,21.19,1.77,3.68,4.29,7.04,5.68,10.84,2.95,8.07,1.17,15.84-2.66,23.25-.28.55-1.11,1.15-1.66,1.12-.46-.02-1.16-.86-1.28-1.43-1.13-5.3-2.17-10.62-3.23-15.93.22-.05.45-.09.67-.14Z"/>
      <path d="m104.3,189.19c6.87,3.57,12.54,8.35,17.17,14.64-3.39-.35-3.79.16-2.76,3.36,1.94,5.99,4.07,11.94,2.82,18.41-.31,1.61-.64,3.21-1.09,5.49-.91-1.94-1.5-3.21-2.45-5.25-1,1.88-1.73,3.11-2.33,4.39-3.49,7.46-9.08,12.54-16.95,15.06-.84.27-1.7.46-2.73.44,10.83-5.52,17.73-14,19.52-26.02,1.8-12.07-2.28-22.21-11.22-30.53Z"/>
      <path d="m115.77,245.63c-11.02-1.99-17.44-9.3-21.42-19.4-.25.1-.5.2-.75.3-.58,1.21-1.15,2.42-2,4.19-.39-1.28-.72-2.13-.91-3.02-1.25-5.63-.72-11.14,1.23-16.55.54-1.49.95-3.03,1.36-4.56.79-2.95.52-3.23-2.44-2.76,1.17-3.51,10.69-12.01,16.7-14.58-8.73,8.29-13.01,18.27-11.22,30.28,1.8,12.06,8.56,20.6,19.44,26.1Z"/>
      <path d="m142.69,284.04c-3.57,7.45-8.23,13.62-15.72,16.29-4.89,1.75-9.62,1.08-14.12-1.64-.35-.21-.7-.58-.89-.97-2.95-6.21-4.23-12.9-4.51-19.87,0-.03.03-.06.02-.04,1.02,2.21,1.94,4.51,3.11,6.65,2.09,3.84,4.86,6.94,8.67,8.65,4.79,2.16,9.42,1.28,13.9-1.19,3.35-1.84,6.23-4.4,8.93-7.25.2-.22.41-.43.61-.65Z"/>
      <path d="m144.53,301.93c-3.46,3.63-7.19,6.79-11.62,8.66-6.3,2.66-12.33.93-16.8-4.86-1.91-2.47-3.35-5.29-4.47-8.33-2.96-8.04-3.8-16.48-3.45-25.14.02-.38,0-.77,0-1.23h-8.26c-1.72,27.87,7.56,40.1,11.84,43.89,6.62,5.88,14.29,6.82,21.14,2.53,6.42-4.02,10.52-10.56,13.83-17.9-.73.8-1.46,1.61-2.2,2.39Z"/>
      <g>
        <path d="m87.72,182.86c-.71,0-1.38-.03-1.99-.09-9.21-.89-16.53-5.37-23.03-14.09l-2.42-3.24,6.14,1.84c-.09-.08-.17-.16-.26-.24-7.26-6.66-9.38-14.92-6.33-24.53.79-2.49,2.46-3.99,3.92-5.31.69-.62,1.35-1.21,1.9-1.88,1.65-2,3.6-3.7,5.67-5.5.91-.8,5.92-4.19,5.92-4.19,0,0-.64,3.73-.84,4.3-.46,1.33-1.63,3.2-2.3,4.37-.55.96-1.23,1.78-1.9,2.58-.57.68-1.11,1.33-1.53,2.02-1.07,1.76-1.8,3.33-2.22,4.81-.29,1.01-.36,2.13-.45,3.44-.04.66-.09,1.35-.16,2.09l-.38,3.7-1.43-2.14c.08,3.49,1,6.28,2.83,8.75,2.58,3.48,6.44,4.55,11.45,5.09l1.1.12.23,2.8-4.59,2.25c2.28,4.43,5.86,7.02,10.91,7.9,1.17.2,2.39.31,3.6.31,3.57,0,7.32-.84,12.17-2.72l4.62-1.79-3.09,3.87c-2.86,3.59-12.03,5.49-17.54,5.49Z"/>
        <path d="m121.78,182.11c-6.09,0-11.89-1.74-16.33-4.9l1.13-2.38c.28.08.55.16.83.24.51.15,1.02.31,1.54.4,1.2.2,2.41.44,3.61.68,2.86.56,5.82,1.14,8.71,1.27h.3c4.23,0,9.43-3.77,11.54-8.16l-4.19-2.08-1.38-2.99,1.96-.11c5.5-.31,9.33-1.9,11.7-4.88,1.81-2.27,2.78-5.35,2.93-9.34l-2.53,2.57.43-3.85c.54-4.86-.91-8.89-4.71-13.08-2.18-2.4-3.18-4.97-2.97-7.64l.23-2.95,2.06,2.12c.96.99,1.87,2.03,2.78,3.07,2,2.28,3.88,4.44,6.18,5.9,4.24,2.71,4.93,6.5,5.59,10.16l.16.85c.9,4.83.11,9.41-2.29,13.25-1.12,1.79-2.55,3.36-3.93,4.87-.5.55-1.01,1.11-1.5,1.67l4.8-1.46-1.61,2.89c-4.75,8.54-14.35,13.85-25.05,13.85Z"/>
      </g>
      <path d="m154.79,100.81c-3.66,6.98-8.19,13.18-15.3,17-7.58,4.08-15.79,2.91-22.58-3.11-4.45-3.95-7.5-8.89-10-14.22-.25-.53-.5-1.07-.78-1.67-1.21,2.3-2.3,4.53-3.53,6.68-2.49,4.31-5.53,8.17-9.68,11.02-6.66,4.58-13.61,4.94-20.66,1.06-6.9-3.81-11.31-9.93-15-16.61,2.67,2.16,5.27,4.44,8.05,6.47,3.38,2.46,7.11,4.27,11.31,4.85,6.28.87,11.27-1.55,15.22-6.3,3.88-4.66,5.86-10.2,7.1-16.05,1.08-5.08,1.31-10.22,1.04-15.39-.01-.25.02-.51.03-.81h12.14c0,.44.01.81,0,1.17-.38,8.22.55,16.24,3.82,23.88,1.24,2.89,2.83,5.57,4.94,7.92,4.95,5.5,11.62,7.15,18.58,4.62,4.9-1.78,9.02-4.78,12.85-8.23.82-.74,1.62-1.51,2.43-2.27Z"/>
      <path d="m147.61,315.63c-4.95,9.1-10.53,13.65-16.76,13.65s-13.17-4.46-15.84-12.72c-2.67-8.26-2.83-21.89-2.83-41.18,0-3.91.03-7.73.08-11.51h-12.52c-.28,6.59-.43,13.06-.43,19.37,0,17.8.98,31.3,6.03,40.1,5.04,8.8,12.66,13.2,22.85,13.2,5.83,0,10.95-2.05,15.35-6.16,4.4-4.1,8.58-10.76,12.54-19.95l5.19,20.47v-57.26c-4.15,18.89-8.7,32.89-13.65,41.98Z"/>
      <path d="m112.02,180.28l32.08,26.48-17.89,42.67s11.55-33.68,4.63-42.67c-6.92-9-18.82-26.48-18.82-26.48Z"/>
      <path d="m99.74,180.28l-32.08,26.48,17.89,42.67s-11.55-33.68-4.63-42.67c6.92-9,18.82-26.48,18.82-26.48Z"/>
    </g>
  </g>
</svg>